<svg id="svg" version="1.1" width="800" height="800" xmlns="http://www.w3.org/2000/svg"><path d="M0.249 398.750 L 0.498 797.500 0.750 399.251 L 1.002 1.002 399.251 0.750 L 797.500 0.498 398.750 0.249 L 0.000 0.000 0.249 398.750 M799.000 399.499 L 799.000 798.998 399.250 799.250 L -0.500 799.502 399.750 799.751 L 800.000 800.000 800.000 400.000 C 800.000 180.000,799.775 0.000,799.500 0.000 C 799.225 0.000,799.000 179.774,799.000 399.499 M373.707 27.964 C 372.601 30.895,372.494 30.931,364.052 31.214 L 355.515 31.500 355.003 34.500 C 354.576 37.005,353.968 37.551,351.323 37.808 C 348.845 38.048,347.932 38.756,347.130 41.058 C 346.200 43.724,345.683 44.000,341.623 44.000 C 337.112 44.000,334.000 45.822,334.000 48.463 C 334.000 49.189,332.875 50.066,331.500 50.411 C 330.004 50.786,329.000 51.753,329.000 52.819 C 329.000 55.066,327.108 57.000,324.908 57.000 C 323.957 57.000,322.953 58.050,322.614 59.400 C 322.247 60.865,320.872 62.197,319.086 62.820 C 317.198 63.478,316.043 64.652,315.830 66.129 C 315.617 67.604,314.614 68.626,313.008 69.002 C 311.637 69.324,309.997 70.627,309.363 71.898 C 308.729 73.170,307.151 74.737,305.855 75.380 C 304.560 76.024,303.356 77.551,303.180 78.775 C 302.985 80.137,302.159 81.000,301.053 81.000 C 298.795 81.000,297.294 82.769,296.846 85.959 C 296.613 87.615,295.683 88.608,294.000 89.000 C 291.613 89.557,291.477 89.986,291.000 98.531 C 290.556 106.483,290.277 107.521,288.500 107.848 C 283.971 108.680,284.000 108.440,284.000 145.422 C 284.000 181.963,284.115 183.000,288.181 183.000 C 290.136 183.000,290.828 185.035,291.236 191.991 C 291.447 195.580,291.902 196.556,293.500 196.849 C 297.578 197.596,298.000 198.839,298.000 210.122 C 298.000 218.935,298.274 221.000,299.443 221.000 C 301.992 221.000,303.830 224.846,303.272 229.009 C 302.423 235.339,303.667 239.700,306.526 240.417 C 307.887 240.759,309.000 241.720,309.000 242.553 C 309.000 243.386,310.575 244.997,312.500 246.133 C 314.955 247.581,316.000 248.915,316.000 250.599 L 316.000 253.000 303.948 253.000 L 291.896 253.000 290.861 250.031 L 289.826 247.062 278.206 246.781 C 266.734 246.504,266.579 246.468,265.998 244.000 L 265.410 241.500 236.955 241.500 L 208.500 241.500 208.173 243.804 C 207.983 245.144,206.825 246.496,205.405 247.036 C 204.063 247.546,202.533 249.097,202.007 250.482 C 201.467 251.903,200.254 253.000,199.225 253.000 C 196.980 253.000,195.000 254.866,195.000 256.981 C 195.000 257.850,193.688 259.057,192.085 259.662 C 190.221 260.365,189.049 261.601,188.835 263.090 C 188.616 264.609,187.631 265.620,186.000 266.000 C 184.385 266.376,183.383 267.392,183.170 268.871 C 182.959 270.333,181.807 271.520,179.979 272.157 C 178.212 272.773,177.001 273.985,176.809 275.327 C 176.609 276.735,175.666 277.618,174.131 277.835 C 172.606 278.051,171.376 279.193,170.678 281.042 C 170.051 282.704,168.731 284.038,167.547 284.207 C 166.362 284.377,164.906 285.849,164.090 287.701 C 163.260 289.588,161.822 291.025,160.590 291.201 C 159.303 291.385,158.377 292.364,158.181 293.748 C 157.977 295.179,156.942 296.227,155.332 296.631 C 153.752 297.028,152.428 298.341,151.804 300.133 C 151.208 301.841,150.085 303.000,149.025 303.000 C 146.949 303.000,145.365 304.692,144.852 307.456 C 144.649 308.554,143.395 309.671,141.995 310.001 C 139.508 310.588,139.500 310.627,139.500 322.500 C 139.500 334.373,139.508 334.412,141.995 334.999 C 143.395 335.329,144.649 336.446,144.852 337.544 C 145.365 340.308,146.949 342.000,149.025 342.000 C 150.092 342.000,151.212 343.168,151.822 344.920 C 152.485 346.821,153.649 347.955,155.160 348.170 C 156.535 348.366,157.629 349.314,157.847 350.500 C 158.370 353.342,159.945 355.000,162.122 355.000 C 163.264 355.000,164.000 355.706,164.000 356.800 C 164.000 357.790,164.540 359.140,165.200 359.800 C 166.526 361.126,175.462 361.358,187.156 360.370 C 193.983 359.793,194.750 359.501,196.228 356.925 C 197.632 354.479,198.537 354.070,203.131 353.805 C 207.813 353.535,208.485 353.218,208.996 351.036 C 209.357 349.493,210.493 348.358,212.036 347.997 C 214.180 347.495,214.565 346.737,215.000 342.170 C 215.414 337.825,215.931 336.706,218.000 335.682 C 220.483 334.452,220.502 334.340,220.776 319.244 L 221.052 304.044 224.276 303.213 C 226.451 302.652,227.601 301.694,227.809 300.268 C 227.996 298.992,229.253 297.759,230.979 297.157 C 232.832 296.511,233.956 295.339,234.170 293.830 C 234.493 291.553,234.777 291.494,246.750 291.219 C 258.058 290.960,259.000 291.079,259.000 292.769 C 259.000 295.282,260.936 297.000,263.767 297.000 C 265.707 297.000,266.016 296.626,265.477 294.928 C 265.057 293.603,265.452 292.158,266.574 290.918 C 268.255 289.061,268.231 288.874,265.990 286.490 C 262.714 283.002,260.667 283.129,262.522 286.704 C 263.293 288.192,263.719 289.614,263.468 289.865 C 262.763 290.570,259.000 286.847,259.000 285.445 C 259.000 284.517,255.942 284.215,247.011 284.259 C 236.684 284.310,234.791 284.573,233.356 286.159 C 232.440 287.172,230.690 288.000,229.467 288.000 C 226.524 288.000,224.627 290.227,226.217 291.817 C 227.110 292.710,226.778 293.639,224.816 295.743 C 223.401 297.260,221.724 299.512,221.087 300.750 C 220.450 301.988,219.104 303.000,218.096 303.000 C 215.981 303.000,215.029 307.058,215.011 316.143 C 215.003 320.425,214.608 321.937,213.373 322.410 C 211.150 323.263,209.000 321.263,209.000 318.341 C 209.000 315.935,208.969 315.928,199.250 316.214 L 189.500 316.500 189.500 321.376 C 189.500 326.277,188.941 327.095,184.686 328.421 C 183.325 328.845,182.951 329.800,183.186 332.243 C 183.500 335.497,183.505 335.500,189.686 335.796 C 195.194 336.060,195.907 336.334,196.186 338.296 C 196.453 340.170,197.296 340.580,201.807 341.033 C 207.123 341.567,209.241 343.084,208.740 346.000 C 208.558 347.059,206.783 347.647,202.701 348.000 C 197.792 348.425,196.731 348.877,195.663 351.000 L 194.406 353.500 180.453 353.269 C 167.376 353.052,166.370 352.895,164.429 350.769 C 163.289 349.521,161.489 348.004,160.429 347.398 C 159.368 346.792,158.355 345.318,158.177 344.123 C 158.000 342.928,156.762 341.235,155.427 340.360 C 152.253 338.280,152.291 336.000,155.500 336.000 C 156.875 336.000,158.000 335.550,158.000 335.000 C 158.000 334.450,156.012 334.000,153.582 334.000 C 145.962 334.000,146.000 334.058,146.000 322.393 L 146.000 312.000 151.941 312.000 C 158.503 312.000,160.495 310.638,156.556 308.844 C 153.728 307.555,153.200 305.521,155.468 304.650 C 156.276 304.341,157.603 302.492,158.417 300.544 C 159.232 298.595,160.517 297.000,161.275 297.000 C 162.032 297.000,163.708 295.875,165.000 294.500 C 166.292 293.125,168.296 292.000,169.454 292.000 C 172.248 292.000,178.000 285.799,178.000 282.786 C 178.000 279.681,179.761 278.000,183.012 278.000 C 185.927 278.000,190.147 273.248,191.005 269.000 C 191.435 266.871,192.140 266.454,195.755 266.193 C 200.479 265.850,201.059 264.855,197.847 262.605 L 195.693 261.097 198.297 259.911 C 199.729 259.258,201.340 257.464,201.877 255.923 C 202.715 253.519,203.466 253.078,207.177 252.811 C 211.045 252.533,211.533 252.214,211.813 249.782 L 212.127 247.064 238.069 246.782 L 264.011 246.500 265.552 249.750 L 267.094 253.000 275.439 253.000 C 283.613 253.000,283.797 253.053,284.443 255.627 C 284.805 257.072,284.792 262.477,284.413 267.639 C 283.765 276.466,283.569 277.097,281.112 278.271 C 278.707 279.420,278.480 280.073,278.246 286.509 C 277.830 297.927,277.635 298.318,272.704 297.609 C 270.392 297.276,267.893 297.394,267.152 297.872 C 265.092 299.197,266.208 302.341,268.969 302.993 C 270.490 303.352,271.645 304.498,272.000 306.000 C 272.356 307.506,273.508 308.646,275.036 309.003 C 276.786 309.412,277.592 310.363,277.816 312.287 C 278.155 315.186,279.410 315.759,286.461 316.233 C 289.743 316.454,290.520 316.922,290.997 318.964 C 291.358 320.508,292.492 321.642,294.036 322.003 C 295.809 322.418,296.591 323.361,296.824 325.367 C 297.061 327.409,297.931 328.429,300.074 329.176 C 303.932 330.521,303.935 333.478,300.080 334.822 C 298.198 335.479,297.043 336.653,296.830 338.129 C 296.617 339.606,295.614 340.626,294.002 341.004 C 292.211 341.424,291.360 342.425,290.996 344.545 C 290.640 346.614,289.836 347.593,288.316 347.810 C 285.813 348.167,284.369 349.671,283.852 352.456 C 283.650 353.545,282.399 354.670,281.031 354.993 C 279.510 355.352,278.355 356.498,278.000 358.000 C 277.644 359.507,276.493 360.645,274.964 361.001 C 272.906 361.481,272.329 362.462,271.462 366.954 C 270.699 370.907,269.850 372.588,268.260 373.297 C 266.524 374.072,266.036 375.262,265.798 379.306 C 265.536 383.734,265.135 384.549,262.500 386.000 C 260.850 386.908,259.356 388.630,259.180 389.826 C 258.994 391.097,258.143 392.000,257.130 392.000 C 253.492 392.000,253.000 393.992,253.000 408.721 C 253.000 423.006,253.006 423.046,255.486 424.176 C 256.853 424.799,258.642 426.331,259.461 427.581 C 260.281 428.832,261.974 430.000,263.225 430.177 C 266.253 430.607,266.480 435.291,263.500 435.844 C 260.506 436.400,259.000 437.976,259.000 440.556 C 259.000 442.334,258.365 442.940,256.250 443.184 C 253.712 443.476,253.462 443.907,253.000 448.790 C 252.585 453.178,252.074 454.291,250.000 455.318 C 247.550 456.531,247.494 456.815,247.212 469.528 C 246.873 484.756,247.216 486.750,250.252 487.181 C 252.449 487.493,252.506 487.827,252.779 501.932 C 253.064 516.697,253.650 519.000,257.122 519.000 C 258.264 519.000,259.000 519.706,259.000 520.800 C 259.000 523.068,260.887 525.000,263.102 525.000 C 264.084 525.000,265.235 526.236,265.822 527.920 C 266.487 529.827,267.648 530.954,269.170 531.170 C 271.321 531.475,271.523 532.035,271.801 538.479 C 272.202 547.779,271.540 550.217,268.725 549.815 C 267.462 549.635,266.360 548.645,266.145 547.500 C 265.620 544.709,264.204 544.033,258.848 544.015 C 254.632 544.001,254.102 543.731,253.196 541.133 C 252.561 539.312,251.249 538.028,249.598 537.614 C 247.681 537.133,247.000 536.317,247.000 534.500 C 247.000 531.890,245.710 531.288,239.007 530.770 C 236.319 530.562,235.212 529.866,234.202 527.750 C 233.407 526.082,232.091 525.000,230.859 525.000 C 229.519 525.000,228.440 523.978,227.694 522.000 C 227.040 520.267,225.835 519.000,224.840 519.000 C 222.475 519.000,221.623 517.338,221.018 511.541 C 220.572 507.269,220.154 506.502,218.000 506.000 C 216.385 505.624,215.383 504.608,215.170 503.129 C 214.959 501.664,213.806 500.480,211.967 499.839 C 209.316 498.915,209.072 498.401,208.797 493.169 C 208.535 488.167,208.236 487.463,206.261 487.182 C 204.702 486.960,203.773 485.898,203.203 483.682 C 202.567 481.209,201.773 480.428,199.640 480.179 C 197.879 479.972,196.585 479.037,196.026 477.569 C 195.060 475.027,191.589 473.991,184.125 474.015 C 178.796 474.033,177.380 474.712,176.855 477.500 C 176.528 479.243,175.580 479.533,169.490 479.754 C 159.447 480.120,158.185 480.549,157.816 483.729 C 157.617 485.444,156.573 486.913,155.000 487.692 C 153.625 488.373,152.261 489.934,151.968 491.160 C 151.618 492.628,150.337 493.674,148.218 494.223 C 145.719 494.871,145.000 495.594,145.000 497.459 C 145.000 499.185,144.370 499.951,142.759 500.180 C 141.495 500.361,139.946 501.698,139.205 503.250 C 138.476 504.776,137.073 506.000,136.052 506.000 C 133.770 506.000,133.000 507.908,133.000 513.563 C 133.000 517.466,132.707 518.035,130.402 518.614 C 128.785 519.020,127.441 520.306,126.843 522.020 C 126.179 523.927,124.979 524.954,122.942 525.362 C 120.110 525.928,120.000 526.158,120.000 531.500 C 120.000 536.847,119.892 537.072,117.046 537.641 C 114.245 538.201,114.078 538.519,113.796 543.825 C 113.530 548.860,113.251 549.476,111.000 549.999 C 108.758 550.520,108.448 551.191,108.000 556.500 C 107.552 561.810,107.242 562.480,105.000 562.999 C 103.003 563.462,102.446 564.274,102.230 567.039 C 101.733 573.413,101.079 574.777,98.006 575.848 L 95.000 576.896 95.015 587.698 C 95.031 598.939,95.337 600.216,98.265 601.297 C 99.236 601.656,100.466 603.095,100.999 604.497 L 101.968 607.045 120.225 606.773 L 138.482 606.500 138.997 603.500 C 139.490 600.626,139.749 600.488,145.175 600.203 C 150.400 599.928,150.915 599.683,151.839 597.033 C 152.488 595.169,153.659 594.044,155.170 593.830 C 156.846 593.593,157.587 592.750,157.809 590.827 C 158.031 588.905,158.943 587.867,161.059 587.129 C 163.013 586.448,164.000 585.422,164.000 584.071 C 164.000 582.716,164.866 581.821,166.598 581.386 C 168.265 580.968,169.562 579.686,170.215 577.812 C 171.037 575.454,171.735 574.949,173.827 575.195 C 175.627 575.407,176.596 576.249,176.992 577.945 C 177.387 579.632,178.541 580.643,180.717 581.206 C 183.158 581.839,183.941 582.641,184.185 584.762 L 184.500 587.500 195.895 588.000 C 207.600 588.514,207.434 588.455,209.674 592.841 C 209.770 593.028,212.226 593.709,215.132 594.355 C 219.483 595.321,220.519 595.967,220.998 598.014 C 221.516 600.226,222.214 600.555,227.330 601.000 C 232.215 601.425,233.265 601.876,234.313 604.000 C 235.317 606.034,236.473 606.593,240.516 607.000 C 244.714 607.422,245.688 607.927,246.797 610.250 C 248.063 612.904,248.383 613.000,255.932 613.000 C 264.010 613.000,265.441 613.630,266.152 617.500 C 266.477 619.265,267.517 619.559,275.001 620.000 C 283.055 620.475,283.548 620.638,284.796 623.250 C 286.053 625.883,286.422 626.000,293.500 626.000 C 300.547 626.000,300.952 625.874,302.195 623.292 C 302.913 621.803,304.623 620.321,305.995 619.998 C 307.392 619.670,308.653 618.552,308.860 617.456 C 309.310 615.083,310.779 614.036,313.684 614.015 C 315.316 614.004,315.947 613.308,316.184 611.255 C 316.433 609.087,317.130 608.402,319.492 607.996 C 321.857 607.591,322.590 606.867,322.994 604.536 C 323.359 602.426,324.214 601.423,326.002 601.004 C 328.190 600.492,328.539 599.807,328.814 595.485 C 329.163 590.005,330.316 588.000,333.122 588.000 C 334.726 588.000,335.000 587.216,335.000 582.621 C 335.000 577.588,335.193 577.163,338.000 576.000 C 340.749 574.861,341.000 574.353,341.000 569.914 C 341.000 564.313,342.476 563.000,348.774 563.000 C 351.969 563.000,352.886 563.455,353.818 565.500 C 355.274 568.695,361.000 569.182,361.000 566.111 C 361.000 564.739,360.029 564.040,357.450 563.557 C 354.477 562.999,354.003 562.567,354.533 560.897 C 355.804 556.890,353.511 556.000,341.913 556.000 C 332.217 556.000,330.961 556.204,330.035 557.934 C 328.505 560.793,328.767 562.000,330.918 562.000 C 335.208 562.000,336.000 563.020,336.000 568.548 C 336.000 573.973,334.943 575.687,331.903 575.188 C 329.509 574.795,328.174 577.027,327.819 582.012 C 327.552 585.754,327.051 586.699,324.750 587.797 C 322.266 588.982,322.000 589.617,322.000 594.358 C 322.000 598.983,321.608 599.988,318.702 602.804 C 316.889 604.562,314.425 606.000,313.228 606.000 C 311.814 606.000,310.500 607.066,309.478 609.043 C 308.612 610.717,306.801 612.505,305.452 613.018 C 304.103 613.531,303.000 614.567,303.000 615.320 C 303.000 618.186,299.457 620.000,293.858 620.000 C 289.070 620.000,288.009 619.619,285.500 617.000 C 282.784 614.165,282.194 614.000,274.761 614.000 C 266.943 614.000,266.890 613.982,265.863 611.036 C 264.830 608.075,264.824 608.073,255.682 607.786 C 246.672 607.504,246.533 607.462,246.517 605.000 C 246.503 602.952,245.958 602.452,243.500 602.236 C 235.632 601.543,234.233 600.976,232.990 597.976 C 231.890 595.320,231.290 595.000,227.407 595.000 C 223.338 595.000,223.003 594.790,222.221 591.750 C 221.503 588.958,220.900 588.462,217.942 588.230 C 211.563 587.730,210.224 587.080,209.136 583.959 L 208.071 580.906 196.324 581.069 C 187.661 581.189,184.467 580.901,184.158 579.974 C 183.928 579.283,182.223 577.038,180.369 574.987 L 177.000 571.258 177.000 558.851 L 177.000 546.445 180.000 543.813 C 182.585 541.544,183.000 540.487,183.000 536.160 C 183.000 531.732,183.263 531.101,185.225 530.820 C 186.449 530.644,188.006 529.375,188.686 528.000 C 189.415 526.525,191.055 525.293,192.684 524.995 C 194.295 524.700,195.958 523.463,196.675 522.025 C 197.351 520.669,198.699 519.281,199.670 518.940 C 200.642 518.599,202.160 517.011,203.044 515.410 C 203.928 513.810,205.630 512.356,206.826 512.180 C 208.171 511.983,209.000 511.146,209.000 509.987 C 209.000 507.745,212.666 504.934,214.615 505.682 C 215.581 506.053,216.000 508.022,216.000 512.197 C 216.000 517.146,216.389 518.523,218.250 520.166 L 220.500 522.152 218.250 521.670 C 217.013 521.404,216.000 521.505,216.000 521.894 C 216.000 523.572,218.649 525.000,221.761 525.000 C 224.562 525.000,226.098 526.009,230.967 531.048 C 235.324 535.556,237.720 537.243,240.379 537.674 C 242.646 538.042,244.161 538.932,244.537 540.117 C 245.256 542.383,244.384 544.000,242.441 544.000 C 241.648 544.000,241.000 544.675,241.000 545.500 C 241.000 546.537,242.042 547.000,244.378 547.000 C 246.235 547.000,248.315 546.325,249.000 545.500 C 250.783 543.352,251.714 543.628,253.203 546.750 C 254.294 549.036,255.253 549.553,258.893 549.814 C 264.424 550.211,266.000 551.800,266.000 556.981 C 266.000 560.645,266.328 561.218,268.941 562.129 C 270.706 562.745,272.005 563.982,272.191 565.225 C 272.361 566.364,273.300 567.792,274.278 568.398 C 277.302 570.272,277.968 567.373,277.985 552.269 C 278.000 538.151,278.019 538.033,280.362 537.445 C 286.385 535.934,289.920 537.473,291.396 542.250 C 292.099 544.524,300.155 544.724,301.989 542.513 C 304.112 539.955,302.434 538.000,298.113 538.000 C 292.991 538.000,291.000 537.186,291.000 535.093 C 291.000 531.892,288.782 531.000,280.819 531.000 C 272.172 531.000,272.820 531.595,271.591 522.523 C 271.295 520.336,270.208 517.411,269.176 516.023 C 266.978 513.068,263.000 512.042,263.000 514.430 C 263.000 515.294,263.418 516.000,263.929 516.000 C 265.369 516.000,268.000 518.977,268.000 520.607 C 268.000 521.760,267.577 521.844,266.000 521.000 C 264.900 520.411,264.000 519.343,264.000 518.625 C 264.000 517.908,262.875 516.808,261.500 516.182 C 259.014 515.049,259.000 514.966,259.000 501.646 L 259.000 488.250 256.000 487.650 L 253.000 487.050 253.000 471.091 L 253.000 455.133 255.750 454.816 C 258.348 454.517,258.516 454.187,258.798 448.830 L 259.095 443.160 263.298 442.465 C 268.427 441.616,269.601 440.990,267.961 439.976 C 265.536 438.477,267.778 436.000,271.561 436.000 C 275.723 436.000,281.316 432.442,278.720 431.446 C 277.887 431.127,276.597 430.966,275.853 431.090 C 273.459 431.489,270.664 429.730,264.768 424.116 L 259.000 418.625 259.000 407.658 L 259.000 396.692 263.154 393.096 C 265.439 391.118,268.244 388.978,269.387 388.340 C 270.975 387.454,271.396 386.373,271.171 383.760 C 270.980 381.552,271.784 378.631,273.438 375.521 C 274.847 372.870,276.000 369.880,276.000 368.874 C 276.000 367.026,280.596 363.263,281.612 364.279 C 281.915 364.581,281.639 365.806,281.000 367.000 C 279.667 369.491,280.226 370.511,282.457 369.655 C 283.546 369.237,284.006 367.655,284.019 364.281 C 284.038 359.672,284.302 359.241,291.374 352.285 C 297.117 346.636,299.738 344.795,303.449 343.802 C 306.847 342.893,308.579 341.782,309.564 339.876 C 310.321 338.413,312.287 336.747,313.934 336.173 C 316.937 335.126,318.895 331.257,317.535 329.057 C 317.176 328.476,314.868 328.000,312.406 328.000 C 307.247 328.000,303.528 325.922,301.432 321.868 C 300.626 320.309,298.624 318.340,296.983 317.491 C 295.342 316.643,294.000 315.301,294.000 314.510 C 294.000 312.729,291.594 311.390,286.771 310.485 C 284.244 310.011,282.277 308.741,280.539 306.463 C 277.179 302.057,277.330 300.620,281.500 297.293 C 284.752 294.698,285.000 294.103,285.000 288.890 C 285.000 284.654,285.574 282.433,287.343 279.826 C 289.761 276.264,291.465 268.329,289.927 267.799 C 289.449 267.635,289.677 265.700,290.434 263.500 L 291.810 259.500 302.069 259.213 C 312.275 258.928,312.345 258.942,315.419 261.922 L 318.510 264.917 334.884 265.444 C 348.867 265.895,351.444 266.224,352.524 267.702 C 353.565 269.125,353.519 269.631,352.268 270.546 C 351.062 271.428,350.980 272.094,351.873 273.763 C 352.493 274.921,353.000 277.447,353.000 279.375 C 353.000 281.304,353.450 283.160,354.000 283.500 C 355.143 284.207,355.356 282.551,355.021 275.538 C 354.769 270.242,354.997 270.204,359.813 274.745 C 362.083 276.886,360.812 281.277,357.285 283.486 C 355.501 284.604,354.276 286.093,354.535 286.832 C 354.791 287.564,355.001 291.389,355.003 295.332 C 355.006 302.180,355.139 302.589,358.000 304.500 C 360.577 306.221,360.998 307.127,361.019 311.000 C 361.041 314.909,361.625 316.136,365.471 320.346 C 367.905 323.011,370.034 325.602,370.202 326.105 C 370.673 327.519,383.520 329.231,393.467 329.206 C 401.125 329.186,402.664 328.899,404.008 327.238 C 404.874 326.169,406.577 324.762,407.791 324.112 C 409.006 323.462,410.000 322.296,410.000 321.522 C 410.000 320.747,410.982 319.426,412.182 318.585 C 415.224 316.455,416.994 318.206,417.022 323.372 C 417.041 326.995,417.697 328.172,422.389 333.000 C 436.677 347.703,443.634 354.000,445.590 354.000 C 447.975 354.000,450.371 358.256,449.512 360.963 C 449.209 361.916,447.836 363.209,446.461 363.836 C 443.672 365.107,441.615 369.418,442.387 372.374 C 443.019 374.788,440.418 380.000,438.581 380.000 C 436.761 380.000,436.000 382.234,436.000 387.582 C 436.000 392.780,433.988 393.525,430.821 389.500 C 429.740 388.125,428.299 387.000,427.619 387.000 C 426.939 387.000,425.577 386.411,424.593 385.692 C 422.991 384.520,422.937 383.942,424.074 380.149 C 425.166 376.504,425.125 375.697,423.783 374.354 C 422.796 373.368,421.447 373.041,420.112 373.465 C 418.470 373.986,417.997 374.955,417.986 377.817 C 417.964 383.885,417.061 385.856,414.148 386.193 C 411.921 386.451,411.449 387.057,411.180 390.000 C 410.978 392.215,409.772 394.632,407.894 396.585 C 406.186 398.361,404.674 401.235,404.329 403.360 C 404.000 405.389,402.674 408.051,401.382 409.275 C 399.398 411.156,399.032 412.494,399.017 417.929 C 399.001 424.030,398.815 424.527,395.382 427.672 L 391.764 430.986 392.471 438.743 C 393.033 444.898,393.663 447.016,395.526 449.000 C 397.947 451.580,400.000 455.998,400.000 458.632 C 400.000 459.709,399.398 459.944,397.875 459.460 C 396.445 459.006,395.973 459.148,396.434 459.893 C 396.810 460.502,397.654 461.016,398.309 461.036 C 398.964 461.056,400.767 462.109,402.315 463.376 C 404.753 465.371,405.088 466.270,404.815 470.090 L 404.500 474.500 393.500 474.144 C 381.288 473.749,378.746 472.957,379.198 469.687 C 379.494 467.547,379.264 467.502,368.500 467.598 C 362.450 467.653,354.575 468.029,351.000 468.436 L 344.500 469.174 342.797 466.087 C 341.313 463.398,340.552 463.000,336.892 463.000 C 333.291 463.000,332.146 462.428,328.885 459.000 C 326.027 455.996,324.301 455.000,321.950 455.000 C 319.723 455.000,318.059 454.134,316.187 452.000 C 313.960 449.462,312.827 449.000,308.834 449.000 C 305.431 449.000,303.749 448.496,302.807 447.194 C 302.088 446.201,298.800 444.569,295.500 443.568 C 292.148 442.551,288.130 440.455,286.395 438.818 C 283.947 436.508,282.731 436.029,280.645 436.553 C 277.148 437.431,277.276 439.852,280.887 441.110 C 282.927 441.822,283.946 442.979,284.362 445.058 C 284.917 447.836,285.224 448.000,289.876 448.000 C 294.446 448.000,294.952 448.253,296.867 451.500 C 298.925 454.988,298.958 455.000,306.216 455.015 C 314.442 455.033,315.455 455.435,316.913 459.270 C 317.848 461.732,318.433 462.000,322.860 462.000 C 326.994 462.000,328.029 462.395,329.408 464.500 C 330.406 466.023,331.989 467.000,333.458 467.000 C 337.499 467.000,340.985 468.831,341.993 471.482 C 342.768 473.520,343.670 474.024,346.725 474.126 C 348.801 474.195,357.006 474.532,364.958 474.876 C 379.341 475.497,379.419 475.513,380.000 478.000 C 380.561 480.398,380.936 480.512,389.194 480.787 C 397.513 481.065,397.824 481.162,398.450 483.655 C 398.806 485.075,398.850 486.483,398.548 486.786 C 398.245 487.088,395.487 487.544,392.417 487.798 C 386.555 488.285,384.783 489.829,387.011 492.513 C 387.689 493.331,389.090 494.000,390.122 494.000 C 391.274 494.000,392.000 494.706,392.000 495.826 C 392.000 496.830,393.125 498.708,394.500 500.000 C 397.941 503.233,397.640 504.366,393.518 503.697 C 389.237 503.002,388.848 503.560,390.324 508.276 C 391.687 512.632,392.393 512.856,394.521 509.608 C 396.624 506.398,400.692 505.692,403.116 508.116 C 404.592 509.592,405.000 511.473,405.000 516.800 C 405.000 522.989,406.020 526.000,408.118 526.000 C 408.514 526.000,409.810 524.425,411.000 522.500 C 412.190 520.575,413.617 519.000,414.171 519.000 C 415.426 519.000,418.922 523.102,418.967 524.628 C 418.985 525.248,419.876 526.373,420.946 527.128 C 422.169 527.991,423.020 529.965,423.238 532.448 C 423.546 535.938,423.957 536.491,426.793 537.226 C 428.657 537.709,430.000 538.703,430.000 539.600 C 430.000 541.396,431.760 543.332,434.250 544.275 C 435.593 544.783,436.000 546.093,436.000 549.914 C 436.000 554.359,436.294 555.031,438.750 556.203 C 441.051 557.301,441.552 558.246,441.819 561.988 C 442.199 567.322,443.077 568.565,447.022 569.354 L 450.000 569.950 450.000 577.920 C 450.000 585.631,450.090 585.934,452.750 587.204 C 455.151 588.350,455.538 589.171,455.799 593.676 C 456.042 597.864,456.560 599.137,458.549 600.440 C 460.573 601.767,461.003 602.869,461.015 606.773 C 461.034 612.525,462.105 614.467,464.861 613.747 C 467.647 613.018,468.801 614.683,469.181 619.980 C 469.454 623.773,469.864 624.505,472.000 625.004 C 474.486 625.584,474.502 625.659,474.780 638.294 C 474.995 648.040,474.762 651.033,473.780 651.142 C 470.242 651.533,468.029 651.672,462.857 651.829 C 458.542 651.960,457.058 652.406,456.553 653.724 C 455.372 656.800,458.726 658.000,468.504 658.000 C 477.334 658.000,477.718 658.096,480.500 661.000 C 482.613 663.206,484.317 664.011,486.937 664.042 C 489.635 664.074,491.095 664.803,492.953 667.042 C 494.777 669.242,496.264 670.000,498.754 670.000 C 501.326 670.000,502.873 670.842,505.429 673.632 C 508.603 677.096,508.970 677.232,513.391 676.569 C 518.749 675.765,522.000 676.520,522.000 678.567 C 522.000 679.509,520.915 680.000,518.833 680.000 C 514.416 680.000,515.689 680.803,522.007 682.001 C 527.349 683.014,531.000 685.247,531.000 687.500 C 531.000 688.155,531.946 689.546,533.102 690.593 C 536.018 693.232,538.000 697.362,538.000 700.801 C 538.000 703.014,536.774 704.831,532.831 708.463 L 527.662 713.225 483.331 713.618 C 454.016 713.878,439.000 713.671,439.000 713.006 C 439.000 712.453,438.355 712.000,437.567 712.000 C 436.779 712.000,435.849 711.100,435.500 710.000 C 435.031 708.523,433.987 708.000,431.506 708.000 C 428.736 708.000,427.870 707.446,426.573 704.846 C 425.708 703.112,424.984 700.749,424.965 699.596 C 424.945 698.443,424.334 696.427,423.607 695.115 C 421.830 691.909,420.712 693.910,421.584 698.733 L 422.266 702.500 419.633 700.076 C 417.699 698.295,417.000 696.668,417.000 693.948 C 417.000 691.862,416.339 689.697,415.487 688.989 C 414.655 688.298,414.092 687.145,414.237 686.426 C 414.382 685.707,412.475 684.043,410.000 682.729 C 405.600 680.392,405.500 680.229,405.500 675.419 L 405.500 670.500 422.202 670.000 C 434.416 669.634,439.252 669.136,440.202 668.145 C 441.288 667.011,440.947 666.906,438.114 667.504 C 434.924 668.177,434.763 668.082,435.322 665.859 L 435.915 663.500 418.115 663.792 C 404.104 664.023,400.077 663.797,399.193 662.733 C 398.560 661.969,397.947 656.623,397.786 650.441 C 397.515 640.057,397.389 639.484,395.316 639.189 C 393.830 638.978,392.927 637.943,392.489 635.951 C 392.136 634.341,390.842 632.231,389.615 631.262 C 388.313 630.235,386.990 627.624,386.441 625.000 C 385.628 621.113,385.125 620.457,382.750 620.184 C 380.996 619.982,379.978 619.257,379.940 618.184 C 379.906 617.258,379.794 613.350,379.690 609.500 L 379.500 602.500 376.500 602.500 L 373.500 602.500 373.500 610.391 C 373.500 618.511,373.732 619.001,378.250 620.396 C 379.637 620.825,380.000 622.070,380.000 626.399 C 380.000 631.220,380.252 631.898,382.148 632.180 C 384.256 632.494,385.319 633.763,386.396 637.250 C 386.723 638.306,387.929 639.000,389.437 639.000 L 391.937 639.000 392.218 650.738 C 392.499 662.445,392.508 662.480,395.250 663.793 C 397.903 665.063,398.000 665.384,398.000 672.932 C 398.000 680.988,398.633 682.438,402.456 683.148 C 403.545 683.350,404.670 684.601,404.993 685.969 C 405.355 687.505,406.497 688.643,408.036 689.004 C 410.184 689.507,410.540 690.213,410.814 694.515 C 411.163 699.995,412.316 702.000,415.122 702.000 C 416.264 702.000,417.000 702.706,417.000 703.800 C 417.000 706.068,418.887 708.000,421.102 708.000 C 422.094 708.000,423.241 709.251,423.850 711.000 C 424.815 713.768,425.267 714.001,429.698 714.015 C 435.441 714.034,436.686 714.700,437.149 718.000 L 437.500 720.500 483.990 720.500 L 530.480 720.500 530.997 717.500 C 531.373 715.315,532.144 714.410,533.836 714.170 C 535.351 713.955,536.514 712.824,537.178 710.920 C 537.765 709.236,538.916 708.000,539.898 708.000 C 543.113 708.000,544.000 705.789,544.000 697.775 L 544.000 689.950 540.987 689.347 C 538.958 688.942,537.787 687.998,537.400 686.459 C 537.068 685.134,535.800 683.916,534.383 683.560 C 532.689 683.135,531.757 682.035,531.345 679.973 C 530.969 678.096,530.133 677.000,529.075 677.000 C 526.891 677.000,525.000 675.060,525.000 672.819 C 525.000 670.676,522.820 670.093,513.525 669.754 C 507.204 669.524,506.435 669.266,505.316 667.000 C 504.293 664.931,503.176 664.414,498.830 664.000 C 494.238 663.563,493.507 663.187,493.000 661.000 C 492.490 658.802,491.820 658.465,487.460 658.207 C 484.300 658.020,482.046 657.315,481.250 656.265 C 480.385 655.125,480.000 650.211,480.000 640.309 C 480.000 626.978,479.872 626.000,478.122 626.000 C 475.316 626.000,474.163 623.995,473.814 618.515 C 473.539 614.190,473.191 613.509,471.000 613.000 C 468.798 612.489,468.440 611.774,468.000 607.000 C 467.560 602.225,467.202 601.511,465.000 601.000 C 462.756 600.479,462.449 599.812,462.000 594.469 C 461.584 589.519,461.163 588.456,459.500 588.151 C 455.626 587.441,455.000 586.013,455.000 577.878 C 455.000 571.945,454.668 570.000,453.655 570.000 C 451.127 570.000,449.130 566.493,448.815 561.498 C 448.520 556.827,448.309 556.478,445.500 556.000 C 442.671 555.519,442.471 555.177,442.000 549.995 C 441.528 544.811,441.330 544.472,438.500 544.000 C 436.100 543.600,435.500 543.000,435.500 541.000 C 435.500 539.027,434.930 538.434,432.796 538.188 C 430.220 537.891,430.078 537.583,429.796 531.688 C 429.515 525.812,429.365 525.484,426.827 525.191 C 424.938 524.973,423.868 524.059,423.176 522.074 C 422.560 520.309,421.232 519.024,419.598 518.614 C 417.720 518.143,417.000 517.309,417.000 515.606 C 417.000 513.802,416.315 513.113,414.075 512.665 C 412.015 512.253,411.054 511.405,410.825 509.799 C 410.639 508.493,409.325 506.957,407.750 506.205 C 406.163 505.447,405.000 504.080,405.000 502.974 C 405.000 501.650,403.995 500.799,401.750 500.221 C 398.878 499.482,398.463 498.937,398.180 495.537 C 397.713 489.907,398.663 487.188,401.227 486.819 C 402.449 486.644,404.008 485.375,404.690 484.000 C 405.372 482.625,406.959 481.252,408.215 480.949 C 410.363 480.431,410.504 479.892,410.575 471.949 C 410.653 463.097,409.954 461.000,406.927 461.000 C 405.407 461.000,405.049 460.046,404.800 455.326 C 404.529 450.194,404.214 449.495,401.500 448.000 C 398.765 446.493,398.473 445.828,398.194 440.465 C 397.804 432.983,398.553 430.000,400.819 430.000 C 404.119 430.000,405.000 427.841,405.000 419.748 C 405.000 411.952,405.021 411.889,407.951 410.867 C 410.638 409.930,410.928 409.381,411.201 404.694 C 411.448 400.448,411.912 399.344,413.855 398.380 C 415.151 397.737,416.736 396.151,417.379 394.855 C 418.277 393.044,419.506 392.430,422.703 392.196 C 426.348 391.929,427.138 392.268,429.118 394.946 C 431.071 397.587,432.003 398.000,436.008 398.000 C 440.273 398.000,440.752 398.257,442.070 401.250 C 443.091 403.570,444.265 404.588,446.173 404.809 C 448.108 405.033,449.134 405.944,449.890 408.115 C 450.878 410.950,451.194 411.096,455.718 410.806 C 460.071 410.527,460.500 410.275,460.500 408.000 C 460.500 405.698,460.095 405.476,455.389 405.203 C 451.000 404.947,450.111 404.539,449.097 402.314 C 448.448 400.888,446.810 398.852,445.458 397.788 C 443.282 396.077,443.002 395.088,443.015 389.177 C 443.032 382.089,443.490 380.726,446.196 379.729 C 447.434 379.273,447.974 377.692,448.196 373.878 C 448.465 369.248,448.843 368.462,451.500 366.995 C 453.150 366.084,454.665 364.475,454.866 363.419 C 455.210 361.612,456.711 360.050,458.136 360.015 C 458.486 360.007,459.530 361.597,460.457 363.550 C 462.101 367.016,462.263 367.093,467.321 366.800 C 472.115 366.522,472.523 366.299,472.811 363.802 C 473.115 361.175,472.969 361.095,467.352 360.802 C 462.155 360.530,461.525 360.255,461.005 358.036 C 460.643 356.493,459.507 355.357,457.964 354.995 C 456.451 354.641,455.380 353.593,455.190 352.282 C 454.735 349.149,453.037 348.165,447.475 347.814 C 443.154 347.541,442.457 347.197,442.173 345.196 C 441.983 343.856,440.825 342.504,439.405 341.964 C 438.063 341.454,436.555 339.960,436.055 338.645 C 435.553 337.324,433.994 335.964,432.573 335.608 C 430.865 335.179,430.000 334.279,430.000 332.929 C 430.000 331.568,429.006 330.549,426.994 329.848 C 423.854 328.753,423.226 327.372,422.767 320.539 C 422.544 317.238,422.084 316.482,420.000 315.998 C 417.178 315.343,415.957 311.277,418.163 309.878 C 418.898 309.412,429.032 309.024,440.683 309.015 C 460.749 309.001,461.898 308.898,462.480 307.063 C 462.818 305.998,464.086 304.986,465.297 304.813 C 466.796 304.600,467.854 303.406,468.607 301.075 C 469.230 299.147,470.651 297.303,471.857 296.857 C 474.626 295.833,474.591 293.527,471.777 291.557 C 469.046 289.644,466.000 289.532,466.000 291.345 C 466.000 292.085,465.140 293.468,464.090 294.419 C 463.039 295.369,461.878 297.349,461.510 298.818 C 460.201 304.033,460.368 304.000,435.397 304.000 L 412.038 304.000 411.539 306.250 C 411.264 307.488,410.918 310.057,410.770 311.961 C 410.555 314.722,409.996 315.539,408.005 316.005 C 406.588 316.336,405.364 317.432,405.171 318.544 C 404.517 322.308,402.142 323.000,389.874 323.000 C 376.713 323.000,373.306 322.170,372.827 318.845 C 372.617 317.393,371.605 316.374,370.000 316.000 C 367.778 315.483,367.466 314.835,367.196 310.163 C 366.929 305.551,366.562 304.763,364.196 303.724 C 360.375 302.047,360.032 301.265,360.015 294.184 C 359.992 284.671,360.447 284.220,370.128 284.156 C 378.871 284.099,381.187 283.114,379.376 280.222 C 378.654 279.070,376.523 278.334,372.938 278.000 C 368.255 277.563,367.507 277.189,367.003 275.036 C 366.646 273.508,365.506 272.356,364.000 272.000 C 362.498 271.645,361.352 270.490,360.993 268.969 C 360.670 267.601,359.545 266.350,358.456 266.148 C 355.692 265.635,354.000 264.051,354.000 261.975 C 354.000 260.904,352.827 259.787,351.055 259.169 C 348.355 258.228,348.084 257.699,347.805 252.821 C 347.545 248.281,347.208 247.500,345.513 247.500 C 344.333 247.500,342.992 248.615,342.209 250.250 C 340.933 252.912,340.635 253.000,332.859 253.000 C 324.852 253.000,324.823 253.010,323.694 256.000 C 322.753 258.494,322.008 259.000,319.281 259.000 C 316.626 259.000,316.000 258.604,316.000 256.923 C 316.000 253.636,321.301 249.000,325.058 249.000 L 328.270 249.000 325.727 247.000 C 324.329 245.900,321.751 245.000,319.999 245.000 C 317.654 245.000,316.675 244.472,316.290 243.000 C 316.002 241.900,315.176 241.000,314.455 241.000 C 311.300 241.000,310.000 237.935,310.000 230.497 C 310.000 223.445,309.873 223.046,306.973 220.981 L 303.946 218.825 304.223 204.663 L 304.500 190.500 313.455 190.500 C 322.147 190.500,322.427 190.572,322.991 192.964 C 323.355 194.505,324.495 195.643,326.036 196.004 C 328.198 196.511,328.536 197.199,328.797 201.629 C 329.137 207.424,327.224 210.261,324.500 208.000 C 323.675 207.315,323.000 206.151,323.000 205.413 C 323.000 203.665,319.266 201.684,317.355 202.417 C 315.102 203.282,316.012 208.394,318.500 208.849 C 321.996 209.489,323.000 211.112,323.000 216.122 C 323.000 220.284,323.285 221.000,324.941 221.000 C 327.534 221.000,328.365 222.542,328.982 228.500 C 329.451 233.029,329.736 233.500,332.000 233.500 C 334.304 233.500,334.523 233.097,334.799 228.353 C 335.075 223.587,334.867 223.042,331.998 220.999 C 329.190 218.999,328.927 218.356,329.199 214.146 C 329.498 209.531,329.529 209.494,333.888 208.579 C 337.395 207.843,338.500 207.957,339.388 209.151 C 340.000 209.973,341.400 211.181,342.500 211.836 C 344.272 212.891,344.157 212.958,341.500 212.421 C 339.850 212.087,337.712 211.601,336.750 211.340 C 333.551 210.472,334.650 214.682,337.920 215.822 C 339.827 216.487,340.954 217.648,341.170 219.170 C 341.432 221.019,342.119 221.500,344.500 221.500 L 347.500 221.500 347.500 215.010 C 347.500 208.581,347.472 208.515,344.500 208.000 L 341.500 207.481 341.221 172.490 C 341.068 153.246,341.189 136.488,341.490 135.250 C 341.906 133.542,342.757 133.000,345.019 133.000 C 347.906 133.000,348.000 133.149,348.015 137.750 C 348.034 143.440,348.705 144.687,352.000 145.149 C 353.885 145.414,354.579 146.186,354.820 148.289 C 355.068 150.451,355.787 151.207,358.015 151.653 C 360.193 152.089,360.963 152.867,361.195 154.864 C 361.412 156.739,362.165 157.594,363.804 157.827 C 365.144 158.017,366.496 159.175,367.036 160.595 C 367.546 161.937,369.120 163.475,370.532 164.012 C 372.934 164.925,373.081 165.361,372.800 170.744 C 372.519 176.131,372.340 176.500,370.010 176.500 C 368.025 176.500,367.414 175.891,367.000 173.500 C 366.497 170.594,366.308 170.500,360.990 170.500 L 355.500 170.500 355.500 176.455 C 355.500 181.959,355.686 182.454,357.964 182.991 C 359.505 183.355,360.643 184.495,361.005 186.036 C 361.554 188.377,362.027 188.525,370.500 189.000 C 379.012 189.477,379.444 189.614,380.002 192.000 C 380.571 194.438,380.831 194.506,390.543 194.748 C 403.612 195.074,405.000 195.434,405.000 198.500 C 405.000 201.110,406.290 201.712,412.992 202.230 C 415.427 202.418,416.587 203.044,416.824 204.298 C 417.380 207.229,415.072 209.000,410.699 209.000 C 407.340 209.000,406.091 208.398,403.436 205.500 L 400.230 202.000 390.730 202.000 C 381.661 202.000,381.155 201.885,379.566 199.460 C 377.978 197.037,377.527 196.934,369.701 197.210 L 361.500 197.500 361.221 211.423 C 360.940 225.393,361.276 226.938,364.603 226.985 C 365.295 226.994,365.958 223.091,366.384 216.499 C 366.758 210.724,367.305 205.368,367.601 204.598 C 368.232 202.954,375.738 201.929,378.180 203.153 C 379.104 203.616,380.004 205.009,380.180 206.248 C 380.476 208.334,381.123 208.537,388.959 209.000 C 396.885 209.469,397.453 209.652,397.982 211.905 C 398.535 214.268,399.771 215.322,403.250 216.396 C 404.738 216.856,405.000 218.216,405.000 225.469 C 405.000 233.885,405.034 234.000,407.481 234.000 C 409.278 234.000,410.131 234.674,410.575 236.443 C 410.912 237.787,410.894 239.362,410.535 239.943 C 410.125 240.607,404.498 241.000,395.410 241.000 C 382.499 241.000,380.879 240.811,380.396 239.250 C 379.325 235.782,378.271 234.536,375.942 233.986 C 374.495 233.645,373.347 232.468,372.991 230.964 C 372.569 229.172,371.740 228.500,369.955 228.500 C 367.730 228.500,367.471 228.952,367.192 233.328 C 366.806 239.378,368.107 240.996,373.372 241.015 C 378.206 241.033,379.630 241.765,380.147 244.500 C 380.510 246.415,381.428 246.511,401.695 246.770 L 422.863 247.039 423.182 244.327 C 423.429 242.217,424.221 241.430,426.750 240.779 C 429.923 239.963,430.000 239.813,430.000 234.419 C 430.000 229.160,430.146 228.845,433.054 227.831 C 436.821 226.518,436.899 222.698,433.170 222.170 C 431.648 221.954,430.487 220.827,429.822 218.920 C 428.892 216.252,428.399 216.000,424.102 216.000 C 419.175 216.000,417.000 214.747,417.000 211.907 C 417.000 209.561,419.019 209.000,427.465 209.000 C 435.599 209.000,435.957 208.656,435.986 200.809 C 436.002 196.537,434.851 195.534,430.281 195.842 C 426.032 196.128,423.223 194.588,422.820 191.752 C 422.545 189.817,421.754 189.430,417.210 189.000 C 412.821 188.585,411.709 188.074,410.683 186.000 C 409.467 183.543,409.194 183.491,394.973 183.000 L 380.500 182.500 380.206 179.986 C 379.973 177.992,380.525 177.240,382.871 176.355 C 384.775 175.636,385.949 174.408,386.165 172.910 C 386.382 171.404,387.369 170.378,388.964 170.005 C 390.507 169.643,391.643 168.507,392.005 166.964 C 392.375 165.385,393.404 164.381,394.871 164.170 C 396.321 163.961,397.518 162.812,398.138 161.033 C 398.822 159.073,400.004 158.049,402.058 157.638 C 404.333 157.183,405.000 156.506,405.000 154.650 C 405.000 152.796,405.667 152.117,407.930 151.664 C 410.215 151.207,410.930 150.465,411.180 148.289 C 411.414 146.248,412.125 145.411,413.830 145.170 C 415.352 144.954,416.513 143.827,417.178 141.920 C 417.828 140.056,418.892 139.000,420.123 139.000 C 421.268 139.000,422.443 137.966,423.019 136.450 C 423.576 134.986,425.269 133.454,426.994 132.852 C 429.210 132.080,430.000 131.173,430.000 129.402 C 430.000 127.205,430.406 126.999,434.750 126.985 C 440.440 126.966,441.687 126.295,442.149 123.000 C 442.408 121.156,443.191 120.420,445.136 120.195 C 447.150 119.961,447.911 119.194,448.361 116.945 L 448.950 114.000 460.725 113.985 C 467.201 113.976,473.010 113.639,473.634 113.235 C 474.258 112.831,474.938 111.600,475.144 110.500 C 475.458 108.826,476.438 108.452,481.146 108.203 C 486.603 107.916,486.803 107.997,487.819 110.912 C 488.858 113.891,488.938 113.919,497.184 114.208 L 505.500 114.500 505.814 119.475 C 506.162 124.983,507.311 127.000,510.103 127.000 C 512.040 127.000,512.750 128.808,513.230 134.961 C 513.446 137.725,514.003 138.538,516.000 139.002 C 518.253 139.525,518.529 140.137,518.797 145.210 C 519.074 150.434,519.306 150.911,522.047 151.867 L 525.000 152.896 525.000 173.393 L 525.000 193.891 522.250 195.206 C 519.511 196.516,519.498 196.573,519.000 209.011 C 518.531 220.725,518.370 221.519,516.412 221.798 C 512.681 222.331,512.068 220.041,511.778 204.475 L 511.500 189.588 509.000 189.002 C 506.669 188.456,506.480 187.948,506.199 181.479 C 505.813 172.587,506.433 170.220,509.252 169.819 C 511.272 169.532,511.500 168.941,511.500 164.000 L 511.500 158.500 506.597 158.189 C 500.789 157.821,500.037 158.627,500.015 165.250 C 500.001 169.631,499.808 170.000,497.529 170.000 C 495.579 170.000,494.881 170.686,494.221 173.250 C 493.578 175.747,492.775 176.572,490.753 176.811 C 488.737 177.048,488.048 177.751,487.811 179.811 C 487.571 181.888,486.704 182.756,484.000 183.625 C 481.664 184.376,480.394 185.458,480.180 186.875 C 479.907 188.691,479.180 189.002,475.180 189.015 C 468.536 189.037,467.831 189.751,468.192 196.095 L 468.500 201.500 474.198 201.798 C 478.921 202.046,480.007 202.448,480.547 204.149 C 481.320 206.583,480.360 207.709,477.125 208.165 C 475.426 208.405,474.431 209.491,473.625 211.988 C 472.926 214.157,471.744 215.619,470.500 215.854 C 467.453 216.429,466.996 217.920,467.658 225.135 C 468.446 233.739,467.476 238.599,464.444 241.235 C 462.395 243.018,462.002 244.260,462.014 248.930 C 462.034 257.315,462.759 259.166,465.881 258.804 C 468.434 258.508,468.507 258.298,468.797 250.503 C 468.960 246.105,469.473 242.127,469.937 241.663 C 470.402 241.198,476.709 240.871,483.954 240.936 L 497.126 241.054 501.508 236.546 C 505.257 232.688,505.933 231.351,506.194 227.278 C 506.437 223.502,506.900 222.442,508.434 222.150 C 511.331 221.599,513.000 224.745,513.000 230.757 C 513.000 237.053,511.804 239.744,508.439 241.023 C 506.373 241.809,506.000 242.611,506.000 246.275 C 506.000 250.888,504.692 253.000,501.835 253.000 C 499.635 253.000,498.000 255.932,498.000 259.878 C 498.000 261.661,497.250 263.419,496.158 264.193 C 495.145 264.912,494.017 266.175,493.652 267.000 C 493.287 267.825,493.227 267.253,493.518 265.729 C 494.106 262.656,492.432 258.615,490.950 259.531 C 490.427 259.854,490.000 261.485,490.000 263.155 C 490.000 266.477,486.620 272.000,484.587 272.000 C 482.473 272.000,480.000 275.476,480.000 278.447 C 480.000 280.120,478.800 282.603,477.000 284.653 C 473.409 288.743,473.141 291.006,476.250 290.985 C 479.362 290.964,480.581 289.955,481.365 286.750 C 481.825 284.873,482.683 284.000,484.071 284.000 C 485.413 284.000,486.446 283.019,487.110 281.113 C 487.822 279.073,488.979 278.054,491.058 277.638 C 493.382 277.174,494.000 276.519,494.000 274.525 C 494.000 272.760,494.542 272.000,495.800 272.000 C 498.058 272.000,500.000 270.116,500.000 267.925 C 500.000 266.871,501.092 266.032,502.947 265.661 C 505.710 265.108,505.912 264.744,506.197 259.794 C 506.463 255.161,506.836 254.356,509.250 253.204 C 511.549 252.106,512.000 251.257,512.000 248.027 C 512.000 242.756,512.757 241.177,516.121 239.437 C 518.918 237.991,519.000 237.728,519.000 230.174 C 519.000 222.170,519.889 220.000,523.167 220.000 C 524.735 220.000,524.966 218.735,525.217 208.793 C 525.496 197.761,525.539 197.578,528.000 197.000 L 530.500 196.413 531.000 177.500 L 531.500 158.587 534.000 157.999 L 536.500 157.410 536.500 133.000 L 536.500 108.590 534.000 108.004 C 531.614 107.444,531.477 107.011,531.000 98.500 C 530.523 89.988,530.386 89.556,528.000 89.000 C 525.599 88.440,525.480 88.046,525.000 79.000 C 524.520 69.954,524.402 69.560,522.000 69.001 C 519.809 68.491,519.461 67.810,519.186 63.485 C 518.835 57.962,517.846 56.264,514.718 55.810 C 513.407 55.620,512.359 54.549,512.005 53.036 C 511.646 51.508,510.506 50.355,509.000 50.000 C 507.509 49.648,506.352 48.491,506.000 47.000 C 505.648 45.509,504.491 44.352,503.000 44.000 C 501.494 43.645,500.354 42.492,499.996 40.964 C 499.493 38.816,498.787 38.460,494.485 38.186 C 489.063 37.841,487.000 36.683,487.000 33.985 C 487.000 31.767,485.051 31.000,479.418 31.000 C 476.256 31.000,475.000 30.594,475.000 29.571 C 475.000 28.786,474.293 27.436,473.429 26.571 C 472.043 25.186,466.113 25.000,423.342 25.000 L 374.826 25.000 373.707 27.964 M467.357 32.500 C 468.182 33.325,470.213 34.000,471.870 34.000 C 475.232 34.000,476.306 35.039,475.396 37.410 C 474.679 39.278,469.946 39.546,468.217 37.817 C 467.566 37.166,466.688 36.980,466.267 37.403 C 465.152 38.522,469.834 42.000,472.456 42.000 C 473.685 42.000,475.505 41.100,476.500 40.000 C 478.304 38.007,483.000 37.202,483.000 38.886 C 483.000 40.197,489.405 43.000,492.401 43.000 C 493.831 43.000,495.000 43.441,495.000 43.979 C 495.000 44.518,497.101 46.881,499.669 49.229 C 512.193 60.684,513.976 62.870,513.349 66.004 C 512.860 68.452,513.310 69.487,515.932 71.936 C 518.832 74.645,519.081 75.361,518.804 80.161 C 518.534 84.831,518.221 85.485,516.000 86.011 C 513.664 86.565,513.624 86.674,515.392 87.671 C 516.433 88.258,518.120 88.520,519.142 88.253 C 520.316 87.946,521.000 88.296,521.000 89.203 C 521.000 89.993,522.125 91.618,523.500 92.813 C 525.691 94.718,526.000 95.796,526.000 101.541 C 526.000 107.405,526.290 108.365,528.750 110.654 L 531.500 113.212 531.500 130.856 C 531.500 140.560,531.890 149.512,532.367 150.750 C 533.017 152.438,532.876 153.000,531.805 153.000 C 529.685 153.000,526.064 147.577,524.367 141.863 C 523.280 138.202,522.076 136.381,519.943 135.167 C 517.531 133.795,517.012 132.844,517.006 129.789 C 517.000 126.311,514.125 122.000,511.811 122.000 C 511.365 122.000,511.000 120.180,511.000 117.955 C 511.000 114.993,510.343 113.252,508.545 111.455 C 506.398 109.307,505.198 109.000,498.952 109.000 C 492.880 109.000,491.741 108.727,491.335 107.174 C 490.015 102.124,477.682 100.071,473.314 104.174 C 472.042 105.370,471.000 106.896,471.000 107.566 C 471.000 109.455,466.691 110.098,458.237 109.469 C 449.699 108.834,446.212 109.926,444.513 113.768 C 443.970 114.995,442.990 116.000,442.335 116.000 C 441.681 116.000,440.237 117.155,439.127 118.566 C 437.931 120.086,435.812 121.296,433.927 121.535 C 429.929 122.041,425.912 124.622,425.263 127.102 C 424.990 128.146,424.310 129.000,423.753 129.000 C 423.195 129.000,419.614 132.150,415.794 136.000 C 411.974 139.850,408.433 143.000,407.925 143.000 C 407.416 143.000,407.000 143.856,407.000 144.902 C 407.000 146.117,405.915 147.182,404.000 147.850 C 402.350 148.425,401.000 149.344,401.000 149.892 C 401.000 150.717,397.629 154.449,387.186 165.186 C 386.644 165.744,385.311 166.999,384.225 167.975 C 383.139 168.951,382.055 170.336,381.816 171.052 C 381.009 173.474,379.000 170.907,379.000 167.454 C 379.000 164.541,378.398 163.645,375.000 161.500 C 372.800 160.111,371.000 158.285,371.000 157.441 C 371.000 156.597,369.653 155.140,368.006 154.203 C 366.360 153.267,365.010 151.917,365.006 151.203 C 365.003 150.490,363.659 149.140,362.021 148.203 C 360.382 147.267,358.528 145.262,357.900 143.750 C 356.883 141.302,355.908 140.595,353.884 140.837 C 353.545 140.877,352.998 138.633,352.669 135.849 C 351.922 129.544,350.675 128.000,346.328 128.000 C 341.552 128.000,337.174 130.512,336.274 133.768 C 335.859 135.271,335.515 151.644,335.510 170.153 C 335.504 188.661,335.163 203.597,334.750 203.344 C 334.337 203.090,334.000 201.543,334.000 199.906 C 334.000 196.456,331.399 192.000,329.385 192.000 C 328.623 192.000,328.000 191.358,328.000 190.573 C 328.000 189.787,326.814 188.212,325.365 187.073 C 323.174 185.349,321.314 185.000,314.330 185.000 C 306.168 185.000,305.961 184.942,307.028 182.948 C 307.632 181.819,307.932 180.131,307.694 179.198 C 307.401 178.048,307.031 178.481,306.548 180.537 C 306.117 182.376,304.487 184.498,302.418 185.916 C 300.169 187.457,299.000 189.058,299.000 190.598 C 299.000 195.047,296.265 192.053,295.574 186.849 C 295.113 183.371,294.150 181.116,292.454 179.544 L 290.000 177.271 290.000 145.423 L 290.000 113.575 292.619 111.487 C 294.894 109.673,295.307 108.446,295.756 102.162 C 296.232 95.512,296.567 94.627,299.887 91.231 C 301.874 89.199,304.400 87.068,305.500 86.495 C 306.600 85.922,307.642 84.227,307.816 82.727 C 307.990 81.227,308.529 80.000,309.013 80.000 C 309.497 80.000,313.831 76.175,318.645 71.500 C 325.036 65.293,328.093 63.000,329.976 63.000 C 334.128 63.000,337.277 60.240,336.528 57.257 C 335.759 54.190,339.221 50.000,342.525 50.000 C 346.528 50.000,351.130 47.787,352.026 45.433 C 352.786 43.433,353.398 43.190,356.438 43.684 C 361.751 44.546,368.000 41.239,368.000 37.566 C 368.000 36.381,365.189 37.064,364.688 38.371 C 364.034 40.076,359.026 41.426,357.823 40.223 C 357.334 39.734,357.222 38.584,357.574 37.667 C 358.097 36.304,359.667 36.000,366.183 36.000 C 373.416 36.000,374.352 35.771,376.326 33.518 L 378.500 31.036 422.179 31.018 C 459.687 31.003,466.069 31.212,467.357 32.500 M500.845 185.500 C 501.407 188.250,502.355 192.440,502.952 194.811 C 503.817 198.247,503.725 200.043,502.500 203.651 C 501.402 206.884,501.148 209.984,501.609 214.486 C 502.190 220.158,502.051 220.902,500.231 221.876 C 498.487 222.810,498.119 222.611,497.576 220.446 C 497.229 219.063,495.832 217.425,494.472 216.805 C 492.506 215.909,492.000 214.939,492.000 212.062 C 492.000 208.061,489.692 204.000,487.419 204.000 C 486.611 204.000,485.518 202.863,484.990 201.474 C 484.462 200.085,483.348 198.687,482.515 198.367 C 480.490 197.590,480.596 196.764,483.250 192.656 C 484.882 190.129,486.637 188.878,489.640 188.100 C 492.247 187.424,494.839 185.784,496.640 183.669 C 498.213 181.822,499.573 180.354,499.662 180.406 C 499.751 180.458,500.283 182.750,500.845 185.500 M408.000 191.000 C 410.232 193.390,411.636 194.000,414.901 194.000 C 417.156 194.000,419.000 194.413,419.000 194.918 C 419.000 195.423,419.293 196.601,419.652 197.535 C 420.209 198.988,420.003 199.072,418.217 198.116 C 417.070 197.502,414.527 197.000,412.566 197.000 C 410.245 197.000,409.000 196.530,409.000 195.655 C 409.000 192.268,405.592 191.079,395.044 190.787 C 387.841 190.588,384.536 190.117,384.248 189.250 C 383.934 188.302,386.415 188.000,394.515 188.000 C 405.095 188.000,405.224 188.029,408.000 191.000 M486.800 215.250 C 487.050 220.043,487.404 221.000,488.927 221.000 C 491.056 221.000,492.632 222.675,493.155 225.492 C 493.397 226.796,494.557 227.663,496.512 228.002 C 498.891 228.414,499.500 229.027,499.500 231.010 L 499.500 233.500 487.000 233.500 L 474.500 233.500 474.500 225.064 L 474.500 216.627 477.750 215.785 C 480.233 215.142,481.000 214.399,481.000 212.638 C 481.000 209.719,481.887 208.840,484.459 209.208 C 486.201 209.457,486.544 210.342,486.800 215.250 M412.683 214.750 C 414.059 218.630,416.240 220.000,421.038 220.000 C 425.101 220.000,425.850 220.317,426.355 222.250 C 427.201 225.485,427.194 225.500,424.737 225.500 C 422.993 225.500,421.862 226.818,419.606 231.477 C 416.876 237.116,416.662 237.314,415.831 234.977 C 415.347 233.615,413.895 231.600,412.606 230.500 C 410.638 228.822,410.172 227.254,409.708 220.750 C 409.253 214.382,409.414 213.000,410.608 213.000 C 411.408 213.000,412.342 213.787,412.683 214.750 M714.313 214.693 C 709.887 215.040,709.080 215.422,708.813 217.294 C 708.592 218.845,707.624 219.638,705.508 220.002 C 703.155 220.407,702.408 221.138,702.008 223.428 C 701.677 225.323,700.453 226.917,698.500 227.995 C 696.850 228.906,695.356 230.630,695.180 231.826 C 694.994 233.097,694.143 234.000,693.130 234.000 C 690.924 234.000,689.000 235.911,689.000 238.102 C 689.000 239.094,687.749 240.241,686.000 240.850 C 684.047 241.531,683.000 242.578,683.000 243.850 C 683.000 245.102,681.970 246.163,680.133 246.804 C 678.312 247.439,677.028 248.751,676.614 250.402 C 676.217 251.983,675.265 253.000,674.181 253.000 C 671.919 253.000,670.000 254.896,670.000 257.130 C 670.000 258.161,669.094 258.990,667.759 259.180 C 666.482 259.363,664.942 260.706,664.178 262.306 C 663.441 263.849,661.749 265.525,660.419 266.031 C 659.015 266.564,658.000 267.759,658.000 268.877 C 658.000 270.108,656.944 271.172,655.080 271.822 C 653.198 272.479,652.043 273.653,651.830 275.129 C 651.617 276.604,650.614 277.626,649.008 278.002 C 647.637 278.324,645.997 279.627,645.363 280.898 C 644.729 282.170,643.151 283.737,641.855 284.380 C 640.560 285.024,639.356 286.551,639.181 287.773 C 638.986 289.129,637.938 290.228,636.496 290.590 C 635.072 290.948,633.729 292.340,633.118 294.092 C 632.432 296.060,631.424 297.000,630.000 297.000 C 628.561 297.000,627.565 297.949,626.850 300.000 C 626.076 302.222,625.175 303.000,623.377 303.000 C 621.490 303.000,620.819 303.656,620.361 305.945 C 619.878 308.360,619.207 308.945,616.636 309.195 C 614.034 309.448,613.445 309.977,613.179 312.302 C 612.963 314.179,612.056 315.409,610.429 316.027 C 609.093 316.535,608.000 317.660,608.000 318.526 C 608.000 319.393,606.425 320.760,604.500 321.564 C 602.352 322.462,601.000 323.717,601.000 324.813 C 601.000 327.080,599.106 329.000,596.870 329.000 C 595.836 329.000,595.010 329.907,594.820 331.250 C 594.602 332.784,593.493 333.797,591.339 334.432 C 589.003 335.120,588.030 336.099,587.614 338.182 C 587.181 340.344,586.485 341.000,584.623 341.000 C 582.840 341.000,581.926 341.775,581.178 343.920 C 580.513 345.827,579.352 346.954,577.830 347.170 C 576.221 347.398,575.393 348.274,575.154 350.000 C 574.711 353.203,573.219 355.000,571.003 355.000 C 569.849 355.000,569.041 356.043,568.639 358.053 C 568.041 361.043,567.921 361.099,562.773 360.803 C 558.163 360.537,557.355 360.162,556.204 357.750 C 555.482 356.238,554.097 355.000,553.126 355.000 C 552.095 355.000,550.766 353.649,549.930 351.750 C 548.591 348.707,548.181 348.500,543.500 348.500 L 538.500 348.500 538.186 353.475 C 538.013 356.211,537.414 359.001,536.855 359.675 C 536.295 360.349,533.530 361.036,530.709 361.201 C 526.172 361.465,525.514 361.788,525.000 364.000 C 524.477 366.244,523.855 366.530,518.912 366.794 C 513.842 367.064,513.317 367.322,512.290 370.044 L 511.174 373.000 499.524 373.000 L 487.873 373.000 488.187 376.250 L 488.500 379.500 499.769 379.783 C 509.851 380.036,511.096 379.878,511.591 378.283 C 512.868 374.168,513.805 373.490,518.892 373.000 C 523.170 372.588,524.298 372.061,525.320 370.000 C 526.495 367.629,526.995 367.500,534.984 367.500 C 543.114 367.500,543.430 367.586,543.991 369.964 C 544.355 371.503,545.497 372.645,547.036 373.009 C 549.314 373.546,549.500 374.041,549.500 379.545 C 549.500 385.201,549.377 385.500,547.045 385.500 C 545.251 385.500,544.431 384.827,544.000 383.000 C 543.569 381.173,542.749 380.500,540.955 380.500 C 538.626 380.500,538.487 380.835,538.244 387.000 C 537.893 395.936,537.303 398.000,535.103 398.000 C 532.311 398.000,531.162 400.017,530.814 405.525 L 530.500 410.500 525.040 411.000 C 520.224 411.441,519.511 411.795,518.996 414.000 L 518.412 416.500 503.745 416.777 L 489.079 417.053 487.514 414.027 L 485.949 411.000 475.665 411.000 C 464.705 411.000,461.333 412.099,462.553 415.276 C 463.124 416.766,464.735 417.000,474.407 417.000 C 485.954 417.000,488.000 417.632,488.000 421.200 C 488.000 422.847,489.183 423.000,501.929 423.000 C 516.640 423.000,518.040 423.400,519.508 428.026 C 520.126 429.971,520.856 430.031,540.815 429.770 L 561.482 429.500 561.996 426.500 C 562.399 424.145,563.089 423.433,565.207 423.188 C 566.812 423.003,568.152 422.095,568.517 420.947 C 569.303 418.469,568.211 416.705,566.336 417.425 C 565.531 417.733,563.510 417.281,561.844 416.419 C 560.177 415.558,558.567 415.100,558.265 415.402 C 557.424 416.242,560.054 419.000,561.696 419.000 C 562.538 419.000,563.006 419.734,562.812 420.750 C 562.527 422.242,561.103 422.543,553.168 422.788 L 543.860 423.077 544.180 420.328 C 544.410 418.348,545.200 417.417,547.000 416.999 C 548.616 416.623,549.617 415.608,549.830 414.129 C 550.043 412.653,551.198 411.479,553.080 410.822 C 554.963 410.166,556.000 409.111,556.000 407.850 C 556.000 406.578,557.047 405.531,559.000 404.850 C 560.818 404.216,562.000 403.103,562.000 402.025 C 562.000 399.949,563.692 398.365,566.456 397.852 C 567.554 397.649,568.671 396.395,569.001 394.995 C 569.431 393.173,570.252 392.500,572.045 392.500 C 574.326 392.500,574.521 392.899,574.797 398.136 C 575.085 403.620,575.011 403.800,572.047 404.834 C 569.139 405.848,569.000 406.152,569.000 411.514 C 569.000 417.054,569.039 417.128,571.750 416.816 C 574.306 416.522,574.535 416.112,575.000 411.000 L 575.500 405.500 583.453 405.204 C 587.827 405.042,591.989 404.424,592.703 403.832 C 593.443 403.217,594.000 400.649,594.000 397.846 C 594.000 394.044,593.606 392.815,592.250 392.396 C 588.795 391.329,587.495 390.263,587.194 388.250 C 587.025 387.125,586.069 385.990,585.068 385.728 C 583.818 385.401,583.105 384.038,582.790 381.376 C 582.146 375.936,582.791 374.269,585.967 373.161 C 587.580 372.599,588.980 371.218,589.325 369.848 C 589.650 368.557,590.933 367.050,592.176 366.500 C 593.418 365.950,594.693 364.375,595.008 363.000 C 595.377 361.392,596.390 360.383,597.845 360.173 C 599.135 359.987,600.504 358.805,601.029 357.423 C 601.558 356.031,602.760 355.000,603.853 355.000 C 606.041 355.000,607.626 353.356,608.148 350.544 C 608.350 349.455,609.601 348.330,610.969 348.007 C 612.500 347.646,613.646 346.501,614.007 344.972 C 614.326 343.621,615.673 341.974,617.001 341.312 C 618.329 340.650,619.760 339.177,620.181 338.040 C 620.602 336.902,622.127 335.522,623.570 334.973 C 625.013 334.425,626.421 333.107,626.699 332.044 C 626.977 330.982,628.166 329.975,629.343 329.806 C 630.519 329.638,632.085 328.237,632.822 326.694 C 633.559 325.151,635.219 323.487,636.510 322.996 C 638.043 322.413,638.969 321.146,639.179 319.341 C 639.408 317.368,640.198 316.416,641.945 316.008 C 643.632 315.613,644.643 314.459,645.206 312.283 C 645.839 309.842,646.641 309.059,648.762 308.815 C 650.909 308.568,651.568 307.907,651.816 305.750 C 652.026 303.929,652.719 303.000,653.866 303.000 C 656.086 303.000,658.000 301.087,658.000 298.870 C 658.000 297.843,658.905 297.009,660.225 296.820 C 661.449 296.644,663.008 295.375,663.690 294.000 C 664.372 292.625,665.934 291.261,667.160 290.968 C 668.615 290.621,669.673 289.341,670.206 287.283 C 670.839 284.842,671.641 284.059,673.762 283.815 C 675.751 283.586,676.590 282.863,676.830 281.170 C 677.046 279.648,678.173 278.487,680.080 277.822 C 681.944 277.172,683.000 276.108,683.000 274.877 C 683.000 273.739,684.030 272.559,685.518 271.993 C 686.903 271.467,688.454 269.937,688.964 268.595 C 689.503 267.178,690.857 266.016,692.190 265.827 C 693.853 265.590,694.629 264.674,695.002 262.508 C 695.411 260.129,696.129 259.412,698.508 259.004 C 700.832 258.605,701.568 257.903,701.805 255.859 C 702.039 253.850,702.808 253.088,705.055 252.639 C 707.181 252.214,708.000 251.472,708.000 249.973 C 708.000 248.574,708.959 247.562,710.941 246.871 C 712.780 246.230,713.997 245.032,714.191 243.673 C 714.397 242.225,715.334 241.385,717.000 241.154 C 720.266 240.702,722.000 239.211,722.000 236.853 C 722.000 235.750,723.038 234.556,724.472 234.011 C 725.868 233.480,727.225 231.952,727.590 230.499 C 728.298 227.677,727.713 216.379,726.812 215.478 C 725.944 214.611,720.063 214.241,714.313 214.693 M449.000 223.500 C 447.437 225.383,449.100 227.731,452.323 228.190 C 454.191 228.456,454.542 229.233,454.799 233.669 C 455.352 243.213,461.000 243.318,461.000 233.784 C 461.000 229.682,460.656 228.723,459.033 228.298 C 457.951 228.016,456.788 226.907,456.448 225.835 C 456.107 224.763,454.713 223.461,453.349 222.943 C 450.231 221.757,450.472 221.726,449.000 223.500 M720.500 227.500 C 720.500 232.190,720.332 232.519,717.798 232.812 C 716.235 232.992,714.848 233.903,714.509 234.972 C 712.912 240.003,707.328 239.468,704.507 234.014 C 702.710 230.538,703.146 229.275,706.597 227.963 C 708.276 227.325,709.000 226.273,709.000 224.475 C 709.000 221.972,709.161 221.909,714.750 222.200 L 720.500 222.500 720.500 227.500 M355.885 233.836 C 353.204 236.822,350.858 238.152,345.289 239.844 C 339.482 241.607,338.077 242.433,337.819 244.233 C 337.643 245.452,336.375 247.017,335.000 247.710 L 332.500 248.971 335.224 248.985 C 337.220 248.996,338.345 248.233,339.431 246.134 C 340.418 244.225,341.971 243.056,344.082 242.634 C 348.597 241.731,348.699 241.761,349.410 244.250 C 350.050 246.491,350.058 246.490,351.522 243.819 C 352.331 242.344,353.893 240.851,354.994 240.502 C 356.095 240.153,357.262 238.805,357.588 237.507 C 357.913 236.209,359.029 234.379,360.066 233.440 C 361.834 231.841,361.854 230.000,360.105 230.000 C 359.678 230.000,357.779 231.726,355.885 233.836 M708.000 243.208 C 708.000 244.904,703.879 248.000,701.622 248.000 C 697.957 248.000,696.639 245.652,697.358 240.403 C 697.703 237.890,698.266 235.379,698.609 234.824 C 699.225 233.827,708.000 241.661,708.000 243.208 M686.000 260.674 C 686.000 264.535,681.724 271.085,678.006 272.919 C 673.418 275.181,673.000 275.236,673.000 273.572 C 673.000 272.669,672.276 270.824,671.390 269.473 C 669.768 266.997,670.074 264.000,671.950 264.000 C 672.506 264.000,673.249 265.145,673.600 266.544 C 674.377 269.637,676.372 269.254,676.841 265.922 C 677.029 264.590,677.852 262.750,678.671 261.833 C 679.830 260.535,679.913 259.706,679.045 258.083 C 678.431 256.937,677.495 256.000,676.965 256.000 C 674.957 256.000,676.101 253.122,678.250 252.767 C 681.676 252.201,686.000 256.612,686.000 260.674 M442.930 260.584 C 440.443 263.581,443.024 265.467,450.073 265.803 C 458.698 266.215,461.000 265.537,461.000 262.588 C 461.000 259.568,459.424 259.000,451.041 259.000 C 446.060 259.000,443.894 259.423,442.930 260.584 M667.000 267.777 C 667.000 268.755,667.671 270.512,668.490 271.682 C 669.808 273.564,669.809 274.138,668.496 276.655 C 667.680 278.220,667.010 280.242,667.006 281.148 C 667.003 282.054,665.897 284.737,664.550 287.110 C 661.969 291.654,661.209 291.323,660.594 285.390 C 660.402 283.534,659.437 282.065,657.897 281.283 C 654.407 279.512,654.879 277.500,658.784 277.500 C 662.748 277.500,664.167 275.593,663.384 271.315 C 663.064 269.563,663.098 267.651,663.460 267.065 C 664.523 265.345,667.000 265.844,667.000 267.777 M411.193 280.852 L 411.500 283.500 426.819 283.776 L 442.138 284.053 441.819 281.276 L 441.500 278.500 426.193 278.352 L 410.887 278.205 411.193 280.852 M657.205 288.297 C 657.625 288.959,657.976 290.705,657.985 292.178 C 657.997 294.347,657.240 295.190,654.000 296.620 C 651.800 297.591,650.000 298.963,650.000 299.669 C 650.000 302.018,645.692 304.012,642.468 303.155 C 639.852 302.460,639.464 301.872,639.193 298.188 C 638.924 294.532,639.205 293.864,641.443 292.844 C 642.849 292.203,644.000 291.301,644.000 290.839 C 644.000 290.378,644.950 289.050,646.110 287.890 C 647.851 286.149,648.940 285.895,652.330 286.437 C 654.591 286.798,656.784 287.635,657.205 288.297 M386.667 291.667 C 386.300 292.033,386.000 293.335,386.000 294.558 C 386.000 297.151,389.182 298.314,393.770 297.396 C 396.406 296.869,396.856 297.147,397.816 299.901 C 398.827 302.801,399.212 303.000,403.826 303.000 C 412.948 303.000,413.267 297.389,404.178 296.802 C 400.220 296.546,399.318 296.085,398.203 293.750 C 397.042 291.317,396.340 291.000,392.112 291.000 C 389.484 291.000,387.033 291.300,386.667 291.667 M638.435 305.975 C 639.846 306.512,641.000 307.418,641.000 307.989 C 641.000 309.753,636.569 315.975,635.305 315.988 C 634.647 315.994,633.519 317.238,632.797 318.750 C 631.922 320.584,630.572 321.605,628.745 321.816 C 626.803 322.040,625.825 322.849,625.387 324.593 C 625.048 325.946,623.945 327.495,622.936 328.034 C 621.927 328.574,620.512 330.246,619.792 331.749 C 619.071 333.252,617.252 335.071,615.749 335.792 C 614.246 336.512,612.547 337.979,611.973 339.051 C 611.399 340.123,610.270 341.000,609.465 341.000 C 608.659 341.000,608.000 341.436,608.000 341.968 C 608.000 343.607,598.602 352.737,596.498 353.143 C 595.214 353.390,594.335 354.568,594.003 356.485 C 593.689 358.298,592.546 359.917,591.056 360.659 C 589.718 361.327,588.018 363.026,587.279 364.436 C 586.541 365.846,585.255 367.000,584.422 367.000 C 583.589 367.000,582.140 368.347,581.203 369.994 C 579.743 372.560,578.909 372.988,575.357 372.994 C 570.696 373.001,570.000 372.084,570.000 365.937 C 570.000 362.598,570.364 361.947,572.535 361.402 C 573.929 361.052,575.724 359.500,576.524 357.954 C 577.324 356.407,578.845 354.866,579.905 354.530 C 580.966 354.194,582.297 352.587,582.864 350.959 C 583.561 348.961,584.571 348.000,585.973 348.000 C 587.254 348.000,588.405 347.066,588.977 345.561 C 589.487 344.219,590.794 342.645,591.882 342.063 C 592.970 341.481,594.004 339.991,594.180 338.752 C 594.456 336.809,595.015 336.540,598.250 336.793 C 601.333 337.034,602.000 336.759,602.000 335.243 C 602.000 334.229,601.467 332.868,600.817 332.217 C 599.260 330.660,600.430 329.603,603.774 329.546 C 605.721 329.513,606.848 328.718,607.818 326.694 C 608.557 325.151,610.254 323.474,611.588 322.967 C 613.560 322.217,613.966 321.436,613.757 318.789 C 613.530 315.916,613.798 315.526,616.038 315.473 C 617.746 315.433,620.199 313.716,623.538 310.226 C 627.744 305.829,629.061 305.036,632.185 305.019 C 634.212 305.009,637.024 305.439,638.435 305.975 M207.429 326.243 C 216.221 327.477,217.004 328.842,211.870 333.976 C 209.327 336.519,208.064 337.049,205.129 336.803 C 202.415 336.575,201.440 336.003,201.207 334.500 C 200.687 331.146,198.779 328.065,196.840 327.449 C 195.042 326.879,194.337 323.997,195.669 322.664 C 196.037 322.297,197.130 322.712,198.098 323.588 C 199.066 324.464,203.265 325.659,207.429 326.243 M550.562 359.980 C 554.560 364.171,557.273 366.148,559.633 366.591 C 561.835 367.004,562.997 367.790,562.991 368.861 C 562.986 369.763,564.441 371.699,566.225 373.165 L 569.467 375.830 566.670 377.105 C 564.108 378.272,563.885 378.805,564.022 383.440 C 564.103 386.223,564.132 389.214,564.085 390.086 C 563.964 392.335,557.155 400.816,554.894 401.534 C 553.855 401.863,552.730 403.228,552.394 404.567 C 552.058 405.905,551.080 407.000,550.220 407.000 C 549.361 407.000,546.757 408.983,544.435 411.407 C 540.695 415.310,539.745 415.795,536.112 415.657 C 533.857 415.570,532.009 415.079,532.006 414.564 C 531.996 412.886,536.303 409.000,538.174 409.000 C 539.178 409.000,540.000 408.550,540.000 408.000 C 540.000 407.450,539.100 407.000,538.000 407.000 C 536.667 407.000,536.000 406.333,536.000 405.000 C 536.000 403.900,536.450 403.000,537.000 403.000 C 539.707 403.000,542.000 398.883,542.000 394.025 C 542.000 389.059,542.005 389.051,544.644 390.055 C 548.278 391.437,553.434 389.604,555.983 386.024 C 558.040 383.135,558.598 381.514,557.250 382.344 C 556.837 382.597,556.381 381.185,556.235 379.204 C 555.913 374.834,553.734 371.292,550.447 369.794 C 549.101 369.181,548.000 367.903,548.000 366.954 C 548.000 366.006,546.875 364.493,545.500 363.592 C 543.667 362.391,543.000 361.071,543.000 358.644 C 543.000 355.804,543.620 354.000,544.596 354.000 C 544.740 354.000,547.425 356.691,550.562 359.980 M580.442 388.936 C 581.828 390.467,581.853 390.877,580.623 391.898 C 579.469 392.855,578.767 392.481,576.964 389.949 C 575.050 387.262,574.217 386.865,571.116 387.160 C 567.650 387.490,567.500 387.373,567.500 384.338 C 567.500 380.397,568.050 379.843,572.739 379.064 C 576.485 378.442,576.505 378.456,577.667 382.799 C 578.308 385.196,579.557 387.958,580.442 388.936 M533.657 416.637 C 538.719 417.245,538.821 417.323,539.159 420.878 L 539.503 424.500 532.002 424.665 C 525.825 424.800,524.191 424.499,522.752 422.958 C 521.302 421.407,521.201 420.652,522.162 418.544 C 523.422 415.778,524.719 415.563,533.657 416.637 M197.579 485.421 C 201.500 489.343,202.000 490.352,202.000 494.354 C 202.000 497.916,202.402 498.993,203.910 499.471 C 208.180 500.827,208.920 505.265,205.045 506.278 C 204.045 506.539,202.609 508.046,201.854 509.627 C 201.086 511.235,199.529 512.636,198.318 512.809 C 196.969 513.002,195.768 514.227,195.129 516.059 C 194.439 518.041,193.426 519.000,192.027 519.000 C 190.764 519.000,189.598 519.926,189.052 521.364 C 188.107 523.848,186.149 525.000,182.873 525.000 C 181.793 525.000,179.788 526.121,178.419 527.490 C 176.211 529.698,176.002 530.533,176.574 534.850 C 177.327 540.525,176.020 543.716,172.752 544.180 C 170.540 544.494,170.500 544.746,170.500 558.315 C 170.500 574.232,170.557 574.131,161.000 575.000 L 155.500 575.500 155.000 581.097 C 154.600 585.571,153.854 587.427,151.281 590.347 C 148.592 593.398,147.406 594.000,144.087 594.000 C 140.756 594.000,139.834 594.473,138.389 596.919 C 136.721 599.742,136.347 599.858,127.082 600.428 C 121.812 600.752,114.474 601.241,110.776 601.513 C 104.438 601.981,103.957 601.865,102.404 599.494 C 101.084 597.480,100.843 595.177,101.190 587.919 C 101.603 579.266,101.766 578.725,104.811 575.879 C 107.136 573.706,108.000 572.014,108.000 569.636 C 108.000 567.317,108.867 565.543,111.000 563.500 C 113.032 561.554,114.009 559.637,114.028 557.563 C 114.046 555.511,115.037 553.537,117.028 551.583 C 119.288 549.365,120.000 547.759,120.000 544.876 C 120.000 541.742,120.607 540.601,123.500 538.293 C 126.274 536.079,127.000 534.790,127.000 532.079 C 127.000 527.632,129.444 525.000,133.573 525.000 C 139.621 525.000,139.891 524.603,139.288 516.623 L 138.741 509.396 142.121 506.734 C 143.979 505.271,146.175 503.364,147.000 502.497 C 148.791 500.616,151.628 497.969,157.984 492.250 C 161.230 489.330,163.613 487.997,165.604 487.989 C 171.763 487.966,176.000 486.776,176.000 485.069 C 176.000 481.933,178.242 481.000,185.779 481.000 L 193.158 481.000 197.579 485.421 M361.000 574.773 C 361.000 580.076,361.251 580.793,363.459 581.799 C 365.739 582.838,365.939 583.514,366.209 591.104 C 366.514 599.678,367.795 602.060,371.364 600.691 C 372.713 600.173,373.000 598.466,373.000 590.979 L 373.000 581.896 370.049 580.867 C 367.359 579.929,367.073 579.383,366.799 574.669 C 366.521 569.860,366.309 569.478,363.750 569.184 C 361.025 568.870,361.000 568.920,361.000 574.773 M174.268 594.000 C 173.327 595.099,172.544 597.012,172.528 598.250 C 172.504 600.159,171.894 600.540,168.500 600.764 L 164.500 601.027 166.861 599.014 C 169.667 596.620,167.550 596.226,164.262 598.529 C 162.901 599.483,161.124 599.818,159.540 599.421 C 157.721 598.964,157.000 599.183,157.000 600.192 C 157.000 602.982,159.427 604.000,166.078 604.000 C 172.961 604.000,174.471 603.250,175.143 599.500 C 175.340 598.400,176.964 596.856,178.751 596.070 C 180.538 595.283,182.000 594.045,182.000 593.320 C 182.000 591.211,176.221 591.719,174.268 594.000 " stroke="none" fill="#000000" fill-rule="evenodd"/></svg>